# xmcd
#
# Track frame offsets: 
#        150
#        22323
#        38873
#        61035
#
# Disc length: 1031 seconds
#
# Revision: 2
# Processed by: cddbd v1.5.2PL0 Copyright (c) Steve Scherf et al.
# Submitted via: ExactAudioCopy v1.0b3
#
DISCID=2e040504
DTITLE=Savage Genius - Forever
DYEAR=2005
DGENRE=JPop
TTITLE0=KARA - ウィンターマジック
TTITLE1=KARA - ウィスパー
TTITLE2=KARA - ウィンターマジック (Instrumental)
TTITLE3=KARA - ウィスパー (Instrumental)
EXTD=YEAR: 2005
EXTT0=
EXTT1=
EXTT2=
EXTT3=
PLAYORDER=
